<?xml version="1.0" ?><svg id="Layer_1" style="enable-background:new 0 0 404 396.115051;" version="1.1" viewBox="0 0 404 396.115051" xml:space="preserve" xmlns="http://www.w3.org/2000/svg" xmlns:xlink="http://www.w3.org/1999/xlink"><style type="text/css">
	.st0{fill:#00599C;}
	.st1{fill:#004482;}
	.st2{fill:#659AD2;}
	.st3{fill:#FFFFFF;}
</style><path class="st0" d="M351.106995,284.144501C353.507996,279.985504,355,275.2995,355,271.091522v-146.069  c0-4.208-1.48999-8.892998-3.891998-13.052002L202,198.057526L351.106995,284.144501z"/><path class="st1" d="M215.25,367.0755l126.5-73.033997c3.644012-2.104004,6.955994-5.737,9.356995-9.897003L202,198.057526  L52.893002,284.145508c2.400997,4.158997,5.714001,7.792999,9.356998,9.895996l126.5,73.033997  C196.037003,371.283508,207.962997,371.283508,215.25,367.0755z"/><path class="st2" d="M351.108002,111.969513c-2.402008-4.159996-5.714996-7.792999-9.358002-9.897003l-126.5-73.033997  c-7.287003-4.208-19.212997-4.208-26.5,0l-126.5,73.033997C54.961998,106.279518,49,116.607513,49,125.022514v146.069  c0,4.207977,1.491001,8.893982,3.893002,13.052979L202,198.057526L351.108002,111.969513z"/><g><path class="st3" d="M202,300.057495c-56.242996,0-102-45.756989-102-101.999985S145.757004,96.057503,202,96.057503   c36.291992,0,70.139008,19.529999,88.330994,50.96801l-44.143005,25.544006   c-9.104996-15.736008-26.037994-25.512009-44.188004-25.512009c-28.121994,0-51,22.878006-51,51c0,28.121002,22.878006,51,51,51   c18.151993,0,35.085007-9.776001,44.190994-25.514999l44.143005,25.542999   C272.141998,280.52652,238.294006,300.057495,202,300.057495z"/></g><g><polygon class="st3" points="304,192.390518 292.666016,192.390518 292.666016,181.057526 281.333984,181.057526    281.333984,192.390518 270,192.390518 270,203.723526 281.333984,203.723526 281.333984,215.057526 292.666016,215.057526    292.666016,203.723526 304,203.723526  "/></g><g><polygon class="st3" points="346.5,192.390518 335.165985,192.390518 335.165985,181.057526 323.834015,181.057526    323.834015,192.390518 312.5,192.390518 312.5,203.723526 323.834015,203.723526 323.834015,215.057526 335.165985,215.057526    335.165985,203.723526 346.5,203.723526  "/></g></svg>