<?xml version="1.0" ?><svg id="Layer_1" style="enable-background:new 0 0 512 512;" version="1.1" viewBox="0 0 512 512" xml:space="preserve" xmlns="http://www.w3.org/2000/svg" xmlns:xlink="http://www.w3.org/1999/xlink"><style type="text/css">
	.st0{fill:url(#SVGID_1_);}
	.st1{fill:#FFFFFF;}
</style><g><radialGradient cx="225.4737" cy="222.8046" gradientTransform="matrix(14.2175 0 0 14.2171 -3055.7039 -2615.9958)" gradientUnits="userSpaceOnUse" id="SVGID_1_" r="47.7212"><stop offset="9.693880e-02" style="stop-color:#FFD87A"/><stop offset="0.1426" style="stop-color:#FCCE78"/><stop offset="0.2263" style="stop-color:#F5B471"/><stop offset="0.3378" style="stop-color:#EB8D65"/><stop offset="0.449" style="stop-color:#E36058"/><stop offset="0.6786" style="stop-color:#CD3694"/><stop offset="1" style="stop-color:#6668B0"/></radialGradient><path class="st0" d="M512,395.1c0,64.6-52.3,116.9-116.9,116.9H116.9C52.3,512,0,459.7,0,395.1V117C0,52.4,52.4,0,117,0h276.3   C458.9,0,512,53.1,512,118.7V395.1z"/><g><path class="st1" d="M327.2,70.6H184.8c-63.1,0-114.3,51.2-114.3,114.3v142.3c0,63.1,51.1,114.2,114.3,114.2h142.3    c63.1,0,114.2-51.1,114.2-114.2V184.9C441.4,121.7,390.3,70.6,327.2,70.6z M405.8,313.5c0,51-41.3,92.3-92.3,92.3h-115    c-51,0-92.3-41.3-92.3-92.3v-115c0-51,41.3-92.3,92.3-92.3h115c51,0,92.3,41.4,92.3,92.3V313.5z"/><path class="st1" d="M261,159c-54,0-97.7,43.7-97.7,97.7c0,53.9,43.7,97.7,97.7,97.7c53.9,0,97.7-43.7,97.7-97.7    C358.6,202.7,314.9,159,261,159z M261,315.4c-32.5,0-58.8-26.3-58.8-58.8c0-32.5,26.3-58.8,58.8-58.8c32.4,0,58.8,26.3,58.8,58.8    C319.7,289.1,293.4,315.4,261,315.4z"/><path class="st1" d="M376.7,157.5c0,13.7-11.1,24.8-24.8,24.8c-13.7,0-24.8-11.1-24.8-24.8c0-13.7,11.1-24.9,24.8-24.9    C365.6,132.6,376.7,143.7,376.7,157.5z"/></g></g></svg>