<?xml version="1.0" ?><svg baseProfile="tiny" id="Layer_1" overflow="scroll" version="1.1" viewBox="0 0 24 24" xml:space="preserve" xmlns="http://www.w3.org/2000/svg" xmlns:xlink="http://www.w3.org/1999/xlink"><path d="M22.2138672,22.75V20c0-0.4140625-0.3359375-0.75-0.75-0.75s-0.75,0.3359375-0.75,0.75v2H3.2617188v-2  c0-0.4140625-0.3359375-0.75-0.75-0.75s-0.75,0.3359375-0.75,0.75v2.75c0,0.4140625,0.3359375,0.75,0.75,0.75h18.9521484  C21.8779297,23.5,22.2138672,23.1640625,22.2138672,22.75z" fill="#1D1D1D"/><path d="M22.2382813,5c0-0.1977539-0.078125-0.387207-0.2167969-0.5273438l-3.7099609-3.75  C18.1708984,0.5800781,17.9785156,0.5,17.7783203,0.5H2.5117188c-0.4140625,0-0.75,0.3359375-0.75,0.75V7.5  c0,0.4140625,0.3359375,0.75,0.75,0.75s0.75-0.3359375,0.75-0.75V2h12.9765625v4c0,0.4140625,0.3359375,0.75,0.75,0.75h3.75V7.5  c0,0.4140625,0.3359375,0.75,0.75,0.75s0.75-0.3359375,0.75-0.75V5z M17.7382813,2.2763062L20.6807861,5.25h-2.9425049V2.2763062z" fill="#1D1D1D"/><path d="M14,9.75h-4c-0.4140625,0-0.75,0.3359375-0.75,0.75V17c0,0.4140625,0.3359375,0.75,0.75,0.75h3.6894531  l0.7802734,0.7802734C14.6162109,18.6767578,14.8076172,18.75,15,18.75s0.3837891-0.0732422,0.5302734-0.2197266  c0.2929688-0.2929688,0.2929688-0.7675781,0-1.0605469L14.75,16.6894531V10.5C14.75,10.0859375,14.4140625,9.75,14,9.75z   M10.75,16.25v-5h2.5v3.9394531l-0.2197266-0.2197266c-0.2929688-0.2929688-0.7675781-0.2929688-1.0605469,0  s-0.2929688,0.7675781,0,1.0605469L12.1894531,16.25H10.75z" fill="#1D1D1D"/><path d="M2.8632813,16.25c-0.4140625,0-0.75,0.3359375-0.75,0.75s0.3359375,0.75,0.75,0.75H6.5  c0.4140625,0,0.75-0.3359375,0.75-0.75v-3.1367188c0-0.4140625-0.3359375-0.75-0.75-0.75H3.6132813V11.25H6.5  c0.4140625,0,0.75-0.3359375,0.75-0.75S6.9140625,9.75,6.5,9.75H2.8632813c-0.4140625,0-0.75,0.3359375-0.75,0.75v3.3632813  c0,0.4140625,0.3359375,0.75,0.75,0.75H5.75V16.25H2.8632813z" fill="#1D1D1D"/><path d="M17.4423828,9.75c-0.4140625,0-0.75,0.3359375-0.75,0.75V17c0,0.4140625,0.3359375,0.75,0.75,0.75h3.6367188  c0.4140625,0,0.75-0.3359375,0.75-0.75s-0.3359375-0.75-0.75-0.75h-2.8867188V10.5  C18.1923828,10.0859375,17.8564453,9.75,17.4423828,9.75z" fill="#1D1D1D"/></svg>